<svg width="1865" height="662" viewBox="0 0 1865 662" fill="none" xmlns="http://www.w3.org/2000/svg"><g clip-path="url(#clip0_1_890)"><rect width="1865" height="662" fill="#EB6E4B"/><path opacity="0.15" d="M1835.41 340.24C1838.73 300.176 1782.9 295.858 1757.31 242.991C1737.36 201.78 1766.21 171.987 1766.62 126.131C1766.9 93.9939 1749.65 73.9247 1722.6 56.5995C1668.6 22.0216 1620.5 58.5921 1596.45 90.3997C1562.71 135.021 1505.27 112.47 1430.01 154.277C1345.39 201.277 1353.84 311.389 1392.05 400.584C1428.01 484.527 1550.57 509.66 1618.66 502.517C1695.92 494.414 1721.02 453.359 1739.7 414.173C1766.1 358.811 1830.81 395.752 1835.41 340.24Z" fill="white"/><path d="M793.833 -72.0517C728.933 -138.03 664.621 -207.083 684.341 -255.127C717.176 -335.122 791.245 -378.582 814.427 -443.586C840.605 -516.992 788.311 -577.896 722.501 -620.742C669.646 -655.155 630.794 -580.643 542.032 -605.456C461.9 -627.856 390.32 -639.953 354.067 -596.769C317.98 -553.784 331.472 -503.693 292.164 -424.966C255.057 -350.648 139.771 -399.036 122.531 -343.602C111.353 -307.655 164.369 -305.034 223.273 -241.3C289.247 -169.917 159.822 -110.373 191.189 -46.3209C211.679 -4.47802 279.89 -23.971 356.329 30.422C446.722 94.7437 486.225 68.0544 581.988 29.4204C677.75 -9.21362 725.419 64.1321 775.015 59.7449C824.612 55.3577 859.492 -5.30213 793.833 -72.0517Z" fill="white"/><path d="M402.603 808.714C436.814 755.067 416.042 676.647 399.111 616.74C379.268 546.532 358 516.483 276.771 521.729C172.796 528.444 93.0754 557.838 52.1595 609.431C19.0351 651.199 10.7006 741.162 53.6478 827.863C96.595 914.563 172.942 853.306 241.378 844.88C309.814 836.454 376.886 849.042 402.603 808.714Z" fill="white"/><path opacity="0.1" d="M451.094 -82.5627C442.291 9.56525 430.754 103.221 381.278 119.008C298.9 145.295 217.99 116.51 153.298 140.551C80.2459 167.699 67.2239 246.911 76.7221 324.862C84.3507 387.47 166.399 369.317 204.467 453.253C238.833 529.028 275.592 591.629 331.976 591.629C388.1 591.629 417.79 549.088 503.36 528.575C584.138 509.21 621.204 628.619 674.745 606.179C709.464 591.629 677.383 549.338 688.323 463.245C700.575 366.819 829.395 427.659 858.285 362.452C877.157 319.855 818.37 280.146 810.88 186.629C802.024 76.0413 756.183 62.9465 665.021 14.4436C573.859 -34.0594 599.384 -117.727 564.135 -152.892C528.886 -188.057 460 -175.768 451.094 -82.5627Z" fill="white"/><path d="M1569.9 526.16C1510.63 450.783 1400.68 430.899 1520.22 227.783C1585.34 117.133 1494.31 52.6682 1445.87 34.8287C1377.11 9.50407 1346.84 65.6063 1258.29 29.8812C1178.35 -2.37062 1217.89 -59.7784 1177.22 -64.5528C1119.47 -71.3335 1143.29 28.6977 1093.79 105.257C1047.06 177.528 919.373 110.213 909.79 169.591C904.599 201.752 948.449 214.101 1001.8 286.479C1061.55 367.545 921.452 414.02 946.408 483.571C962.71 529.005 1035.18 516.753 1107.65 581.524C1193.36 658.117 1237.09 635.164 1340.13 606.361C1443.16 577.557 1483.84 658.545 1535.41 659.713C1586.99 660.881 1629.85 602.419 1569.9 526.16Z" fill="white"/></g><defs><clipPath id="clip0_1_890"><rect width="1865" height="662" fill="white"/></clipPath></defs></svg>